<?xml version="1.0" encoding="UTF-8" standalone="no"?>
<!-- Created with Inkscape (http://www.inkscape.org/) -->

<svg
   xmlns:dc="http://purl.org/dc/elements/1.1/"
   xmlns:cc="http://creativecommons.org/ns#"
   xmlns:rdf="http://www.w3.org/1999/02/22-rdf-syntax-ns#"
   xmlns:svg="http://www.w3.org/2000/svg"
   xmlns="http://www.w3.org/2000/svg"
   xmlns:sodipodi="http://sodipodi.sourceforge.net/DTD/sodipodi-0.dtd"
   xmlns:inkscape="http://www.inkscape.org/namespaces/inkscape"
   width="279.81226"
   height="284.72739"
   id="svg2"
   version="1.1"
   inkscape:version="0.48.4 r9939"
   sodipodi:docname="icon_details.svg">
  <defs
     id="defs4" />
  <sodipodi:namedview
     id="base"
     pagecolor="#ffffff"
     bordercolor="#666666"
     borderopacity="1.0"
     inkscape:pageopacity="0.0"
     inkscape:pageshadow="2"
     inkscape:zoom="0.98994949"
     inkscape:cx="-126.25248"
     inkscape:cy="128.15309"
     inkscape:document-units="px"
     inkscape:current-layer="layer1"
     showgrid="false"
     inkscape:window-width="1301"
     inkscape:window-height="744"
     inkscape:window-x="65"
     inkscape:window-y="24"
     inkscape:window-maximized="1"
     fit-margin-top="0"
     fit-margin-left="0"
     fit-margin-right="0"
     fit-margin-bottom="0" />
  <metadata
     id="metadata7">
    <rdf:RDF>
      <cc:Work
         rdf:about="">
        <dc:format>image/svg+xml</dc:format>
        <dc:type
           rdf:resource="http://purl.org/dc/dcmitype/StillImage" />
        <dc:title />
      </cc:Work>
    </rdf:RDF>
  </metadata>
  <g
     inkscape:label="Layer 1"
     inkscape:groupmode="layer"
     id="layer1"
     transform="translate(-252.34378,-229.0626)">
    <path
       sodipodi:type="arc"
       style="color:#000000;fill:#0b860b;fill-opacity:1;fill-rule:evenodd;stroke:none;stroke-width:1px;marker:none;visibility:visible;display:inline;overflow:visible;enable-background:accumulate"
       id="path3848"
       sodipodi:cx="454.56863"
       sodipodi:cy="388.69196"
       sodipodi:rx="217.1828"
       sodipodi:ry="217.1828"
       d="m 671.75143,388.69196 c 0,119.94674 -97.23605,217.1828 -217.1828,217.1828 -119.94674,0 -217.1828,-97.23606 -217.1828,-217.1828 0,-119.94675 97.23606,-217.1828 217.1828,-217.1828 119.94675,0 217.1828,97.23605 217.1828,217.1828 z"
       transform="matrix(0.64418606,0,0,0.64418606,99.423137,121.98113)" />
    <path
       style="fill:#8ba085;fill-opacity:1;stroke:none"
       d="m 401.88883,347.19437 c 11.43658,9.07462 -73.09425,142.29245 -92.08539,127.03397 -18.99114,-15.25848 80.6488,-136.10857 92.08539,-127.03397 z"
       id="path3894"
       inkscape:connector-curvature="0"
       sodipodi:nodetypes="zzz" />
    <path
       sodipodi:type="arc"
       style="color:#000000;fill:#e5e5e5;fill-opacity:1;fill-rule:evenodd;stroke:none;stroke-width:1px;marker:none;visibility:visible;display:inline;overflow:visible;enable-background:accumulate"
       id="path3890"
       sodipodi:cx="160.10918"
       sodipodi:cy="114.0116"
       sodipodi:rx="64.144684"
       sodipodi:ry="57.578693"
       d="m 224.25386,114.0116 c 0,31.79983 -28.71855,57.57869 -64.14468,57.57869 -35.42613,0 -64.144687,-25.77886 -64.144687,-57.57869 0,-31.799838 28.718557,-57.578697 64.144687,-57.578697 35.42613,0 64.14468,25.778859 64.14468,57.578697 z"
       transform="translate(260.42501,205.82909)" />
    <path
       sodipodi:type="arc"
       style="color:#000000;fill:#ffffff;fill-opacity:1;fill-rule:evenodd;stroke:none;stroke-width:1px;marker:none;visibility:visible;display:inline;overflow:visible;enable-background:accumulate"
       id="path3892"
       sodipodi:cx="152.53304"
       sodipodi:cy="57.948139"
       sodipodi:rx="15.152288"
       sodipodi:ry="8.586297"
       d="m 167.68532,57.948139 c 0,4.742081 -6.78391,8.586297 -15.15228,8.586297 -8.36838,0 -15.15229,-3.844216 -15.15229,-8.586297 0,-4.742081 6.78391,-8.586297 15.15229,-8.586297 8.36837,0 15.15228,3.844216 15.15228,8.586297 z"
       transform="translate(252.34378,242.19458)" />
  </g>
</svg>
