<?xml version="1.0" encoding="UTF-8" standalone="no"?>
<!-- Created with Inkscape (http://www.inkscape.org/) -->

<svg
   xmlns:dc="http://purl.org/dc/elements/1.1/"
   xmlns:cc="http://creativecommons.org/ns#"
   xmlns:rdf="http://www.w3.org/1999/02/22-rdf-syntax-ns#"
   xmlns:svg="http://www.w3.org/2000/svg"
   xmlns="http://www.w3.org/2000/svg"
   xmlns:sodipodi="http://sodipodi.sourceforge.net/DTD/sodipodi-0.dtd"
   xmlns:inkscape="http://www.inkscape.org/namespaces/inkscape"
   id="svg3928"
   version="1.1"
   inkscape:version="0.48.4 r9939"
   width="958.90411"
   height="583.35809"
   sodipodi:docname="raymon.svg">
  <metadata
     id="metadata3934">
    <rdf:RDF>
      <cc:Work
         rdf:about="">
        <dc:format>image/svg+xml</dc:format>
        <dc:type
           rdf:resource="http://purl.org/dc/dcmitype/StillImage" />
        <dc:title></dc:title>
      </cc:Work>
    </rdf:RDF>
  </metadata>
  <defs
     id="defs3932" />
  <sodipodi:namedview
     pagecolor="#ffffff"
     bordercolor="#666666"
     borderopacity="1"
     objecttolerance="10"
     gridtolerance="10"
     guidetolerance="10"
     inkscape:pageopacity="0"
     inkscape:pageshadow="2"
     inkscape:window-width="1301"
     inkscape:window-height="744"
     id="namedview3930"
     showgrid="false"
     inkscape:zoom="0.365"
     inkscape:cx="-5.1690764"
     inkscape:cy="539.23645"
     inkscape:window-x="65"
     inkscape:window-y="24"
     inkscape:window-maximized="1"
     inkscape:current-layer="svg3928"
     fit-margin-top="0"
     fit-margin-left="0"
     fit-margin-right="0"
     fit-margin-bottom="0" />
  <flowRoot
     xml:space="preserve"
     id="flowRoot3017"
     style="font-size:40px;font-style:normal;font-variant:normal;font-weight:normal;font-stretch:normal;line-height:125%;letter-spacing:0px;word-spacing:0px;fill:#ffffff;fill-opacity:1;stroke:none;font-family:FreeSans;-inkscape-font-specification:FreeSans"
     transform="translate(4.3945312e-5,53.358108)"><flowRegion
       id="flowRegion3019"><rect
         id="rect3021"
         width="831.50684"
         height="195.89041"
         x="223.28767"
         y="510.82193"
         style="fill:#ffffff;fill-opacity:1" /></flowRegion><flowPara
       id="flowPara3023" /></flowRoot>  <rect
     style="fill:#c1672a;fill-opacity:1;stroke:none"
     id="rect3015"
     width="958.90411"
     height="316.98907"
     x="0"
     y="266.36902"
     rx="32.0536"
     ry="40.067001" />
  <text
     xml:space="preserve"
     style="font-size:134.57199097px;font-style:normal;font-variant:normal;font-weight:500;font-stretch:normal;line-height:125%;letter-spacing:0px;word-spacing:0px;fill:#ffffff;fill-opacity:1;stroke:none;font-family:Ubuntu;-inkscape-font-specification:Ubuntu Medium"
     x="107.54097"
     y="434.19363"
     id="text3793"
     sodipodi:linespacing="125%"
     transform="scale(0.9118525,1.0966686)"><tspan
       sodipodi:role="line"
       id="tspan3795"
       x="107.54097"
       y="434.19363">CONNEXION</tspan></text>
  <path
     style="fill:#e4a16c;fill-opacity:1;stroke:none"
     d="m 697.94524,204.7252 c 53.0672,13.51589 84.8384,45.49195 91.0959,65.0685 5.9065,18.47877 -8.7261,24.12718 -16.4384,28.08219 0,0 -17.0179,13.62514 -25.3425,19.17808 -22.606,15.07949 -38.099,7.88513 -56.8493,6.16438 -17.9176,-1.64433 -43.6342,-0.24123 -50,-23.28767 -7.861,-28.46003 -40.7464,-45.98837 -21.2329,-71.23287 15.8545,-20.51079 40.2543,-33.78161 78.7672,-23.97261 z"
     id="path4564"
     inkscape:connector-curvature="0"
     sodipodi:nodetypes="ssssssss" />
  <path
     style="fill:#4c3633;fill-opacity:1;stroke:none"
     d="m 328.25474,35.300868 c -33.7668,-0.76048 -113.513,111.814842 -106.5504,139.484082 7.1412,28.3785 22.3696,61.46267 28.0906,48.43197 47.1885,-107.48112 60.5207,-127.241342 82.3343,-131.734972 l 249.5458,3.027 c 76.3395,14.677392 75.7958,90.312672 90.8704,100.314722 20.515,13.61166 18.2226,-68.22854 18.2226,-68.22854 -5.0017,-32.817692 -54.6761,-84.506862 -105.3396,-97.590422 -69.1894,-42.91007 -162.156,-36.0272901 -257.1737,6.29616 z"
     id="path3938"
     inkscape:connector-curvature="0"
     sodipodi:nodetypes="cssccsscc" />
  <path
     style="fill:#4c3633;fill-opacity:1;stroke:none"
     d="m 277.88544,154.44352 c 13.825,27.19889 11.264,17.14177 14.5296,31.9651 3.6396,16.5204 -10e-4,37.73223 13.561,61.02428 9.3117,15.99242 24.6504,21.72284 37.7769,40.68286 15.47,22.34503 11.5034,57.87112 32.9337,74.58523 18.0821,14.10266 44.8736,11.54872 67.8048,11.62368 27.8144,0.0909 60.2542,3.35395 82.3344,-13.56095 18.5823,-14.23528 13.2549,-46.66253 29.0591,-63.93021 13.2762,-14.50556 29.1927,-19.22267 38.7456,-35.83966 17.9532,-31.22915 27.8581,-62.42299 28.0906,-89.11482 0.2324,-26.69183 22.7694,-15.74891 25.1846,-28.09055 6.0608,-30.97063 -31.9651,-89.114822 -31.9651,-89.114822 l -294.4664,-1.93728 c 0,0 -57.4138,74.508252 -43.5888,101.707142 z"
     id="path3940"
     inkscape:connector-curvature="0"
     sodipodi:nodetypes="zsssasasszsccz" />
  <path
     style="fill:#d9945d;fill-opacity:1;stroke:none"
     d="m 188.39794,218.66578 c -24.7546,9.2692 -73.0645,29.14088 -72.648,67.80476 0.1133,10.5116 21.3101,23.24735 21.3101,23.24735 0,0 16.4369,7.17007 25.1846,8.71775 18.7028,3.30897 40.6862,-3.61528 56.1811,-1.93728 27.9583,3.0277 44.0268,-9.095 56.631,-38.46186 10.2384,-23.85488 -2.2101,-58.31687 -23.6973,-70.99439 -18.381,-10.8449 -38.207,2.35447 -62.9615,11.62367 z"
     id="path3942"
     inkscape:connector-curvature="0"
     sodipodi:nodetypes="zscsssaz" />
  <path
     style="color:#000000;fill:#582b18;fill-opacity:1;stroke:none;stroke-width:1.09544516px;marker:none;visibility:visible;display:inline;overflow:visible;enable-background:accumulate"
     d="m 149.16804,309.7179 c -7.757,0 -14.0453,-5.42093 -14.0453,-12.10799 0,-6.68706 -1.4608,-14.04527 6.2962,-14.04527 16.5246,5.9884 22.5685,33.74165 7.7491,26.15326 z"
     id="path3944"
     inkscape:connector-curvature="0"
     sodipodi:nodetypes="cscc" />
  <path
     style="fill:#582b18;fill-opacity:1;stroke:none"
     d="m 178.71154,292.28238 c -7.1011,0.98504 -15.8927,18.37616 -9.1677,20.86017 10.0069,3.69622 30.6868,7.49202 32.415,-2.45602 1.6918,-9.73764 -13.4576,-19.76214 -23.2473,-18.40415 z"
     id="path4455"
     inkscape:connector-curvature="0"
     sodipodi:nodetypes="ssss" />
  <path
     style="fill:#582b18;fill-opacity:1;stroke:none"
     d="m 123.28764,281.43753 c 4.0247,-0.41273 3.6654,9.90708 5.4795,15.06849 1.82,5.17844 -7.9248,-2.13336 -8.9041,-7.53424 -0.4922,-2.71442 0.6803,-7.25282 3.4246,-7.53425 z"
     id="path4457"
     inkscape:connector-curvature="0"
     sodipodi:nodetypes="ssss" />
  <path
     style="fill:#582b18;fill-opacity:1;stroke:none"
     d="m 219.86304,311.57452 c 3.976,7.19345 25.6882,3.2436 23.9726,-4.79452 -3.5998,-16.86559 -10.3484,-19.49307 -15.2332,-15.65837 -6.333,4.97163 -12.6343,13.40632 -8.7394,20.45289 z"
     id="path4459"
     inkscape:connector-curvature="0"
     sodipodi:nodetypes="ssss" />
  <path
     style="fill:#2a1719;fill-opacity:1;stroke:none"
     d="m 413.49494,317.17495 c 4.3692,1.091 15.6607,-18.0132 25.1847,-1.93729 18.5857,31.37156 -51.9877,40.87607 -49.7691,50.87193 2.2186,9.99585 47.9802,-10.30894 59.4555,-13.09499 11.4752,-2.78605 59.8052,14.41882 65.6807,6.89574 2.2008,-2.81793 -67.9283,-5.93884 -55.0257,-47.5786 5.7208,-18.46254 19.2498,5.93926 24.216,4.84321 11.368,-2.50898 8.9689,-31.25714 0.9686,-39.71422 -19.0824,-20.17192 -59.0996,-18.93679 -78.4598,0.96864 -8.1074,8.33572 -3.5326,35.92844 7.7491,38.74558 z"
     id="path4461"
     inkscape:connector-curvature="0"
     sodipodi:nodetypes="sszzssssss" />
  <path
     style="fill:#cf9576;fill-opacity:1;stroke:none"
     d="m 294.52054,57.464918 c -2.1036,7.78425 3.2697,8.45208 1.7123,17.12329 -2.9876,16.63498 -18.6571,22.73305 -27.7397,36.986302 -16.9031,26.52601 -24.5785,119.12934 -15.4109,89.0411 0,0 5.4253,-58.19468 20.2054,-84.93151 14.562,-26.342162 44.386,-36.498132 57.1918,-51.027392 6.6731,-7.5712 8.3739,-24.9946 -1.7123,-25.34247 -12.0626,-0.41603 -32.7661,12.67229 -34.2466,18.15068 z"
     id="path4467"
     inkscape:connector-curvature="0"
     sodipodi:nodetypes="ssssssss" />
  <path
     style="fill:#a25d40;fill-opacity:1;stroke:none"
     d="m 421.57534,128.35533 c -5.4462,-7.25538 -20.6954,-25.41686 -29.7945,-23.63013 -7.065,1.3873 -16.3681,18.46081 -9.2466,19.52055 16.3634,2.43501 46.4833,14.02395 39.0411,4.10958 z"
     id="path4469"
     inkscape:connector-curvature="0"
     sodipodi:nodetypes="ssss" />
  <path
     style="fill:#e59968;fill-opacity:1;stroke:none"
     d="m 477.05484,137.60191 c -10.0502,-2.31176 4.5502,-29.83243 14.726,-31.50685 12.2614,-2.01762 42.4876,18.71869 24.6575,18.49316 -15.8304,-0.20024 -36.7307,13.62389 -39.3835,13.01369 z"
     id="path4471"
     inkscape:connector-curvature="0"
     sodipodi:nodetypes="ssss" />
  <path
     style="fill:#a76745;fill-opacity:1;stroke:none"
     d="m 311.30354,192.22046 c 6.6412,-4.86662 15.0812,4.11281 19.3728,11.13935 10.688,17.49963 0.02,42.23552 8.2334,61.02428 3.5199,8.05244 12.0403,23.31501 10.1707,25.18463 -1.9175,3.84243 -21.5955,-19.91616 -31.9651,-30.99646 -14.1155,-15.08296 -21.227,-55.05562 -5.8118,-66.3518 z"
     id="path4473"
     inkscape:connector-curvature="0"
     sodipodi:nodetypes="ssscss" />
  <path
     style="fill:#fdcca3;fill-opacity:1;stroke:none"
     d="m 592.20894,196.57933 c 24.3681,3.69951 5.3366,51.20555 -7.2648,77.00683 -5.1578,10.56056 -25.804,32.93375 -33.9024,32.93375 -5.0306,-3.14416 4.3271,-32.49574 12.5923,-46.01038 12.4578,-20.36996 4.4232,-67.59687 28.5749,-63.9302 z"
     id="path4475"
     inkscape:connector-curvature="0"
     sodipodi:nodetypes="sscss" />
  <path
     style="fill:#af6a3c;fill-opacity:1;stroke:none"
     d="m 555.88494,79.373958 c -5.5238,-8.15913 6.1961,-38.40271 15.4983,-41.65149 25.7517,-8.99383 63.9645,23.3924 82.8186,43.10445 24.1375,25.235862 25.0119,97.598882 20.8258,100.738502 -4.7348,4.47953 -7.7273,-61.91834 -30.9965,-87.177552 -26.7322,-29.01843 -76.1173,2.75361 -88.1462,-15.01391 z"
     id="path4477"
     inkscape:connector-curvature="0"
     sodipodi:nodetypes="ssscss" />
  <path
     style="fill:#481a0a;fill-opacity:1;stroke:none"
     d="m 602.86394,106.49587 c 4.7936,-12.218732 33.2439,6.02233 35.8397,18.88846 2.2678,11.2403 -5.4563,37.14064 -14.0453,29.54351 -7.2683,-6.42894 -24.117,-42.51143 -21.7944,-48.43197 z"
     id="path4517"
     inkscape:connector-curvature="0"
     sodipodi:nodetypes="ssss" />
  <path
     style="fill:#502310;fill-opacity:1;stroke:none"
     d="m 590.75604,122.47842 c 0,0 9.6636,6.19668 16.4668,13.07663 7.7697,7.85728 19.7608,40.78953 5.8119,27.1219 -14.8318,-14.53258 -40.5252,-49.35679 -22.2787,-40.19853 z"
     id="path4519"
     inkscape:connector-curvature="0"
     sodipodi:nodetypes="ssss" />
  <path
     style="fill:#1f100f;fill-opacity:1;stroke:none"
     d="m 500.57864,162.31576 c -12.9443,3.70871 -12.0671,20.24575 -9.2426,27.28775 4.6029,6.23061 32.2473,7.14799 35.21,-9.24263 2.2765,-12.59474 -13.4691,-21.62604 -25.9674,-18.04512 z"
     id="path4521"
     inkscape:connector-curvature="0"
     sodipodi:nodetypes="scss" />
  <path
     style="fill:#b2adb4;fill-opacity:1;stroke:none"
     d="m 509.34074,166.8145 c -11.5187,1.1704 4.8597,15.2859 9.1498,14.41798 4.1533,-0.84022 1.7542,-15.52593 -9.1498,-14.41798 z"
     id="path4465-8"
     inkscape:connector-curvature="0"
     sodipodi:nodetypes="sss" />
  <path
     style="fill:#1f100f;fill-opacity:1;stroke:none"
     d="m 398.04794,160.67871 c 12.9443,3.70871 12.0671,20.24575 9.2426,27.28775 -4.6029,6.23061 -32.2473,7.14799 -35.21,-9.24263 -2.2765,-12.59474 13.4692,-21.62604 25.9674,-18.04512 z"
     id="path4521-4"
     inkscape:connector-curvature="0"
     sodipodi:nodetypes="scss" />
  <path
     style="fill:#b2adb4;fill-opacity:1;stroke:none"
     d="m 388.83074,166.53606 c 8.9062,0.9495 -3.7574,12.40087 -7.0745,11.69676 -3.2113,-0.68164 -1.3564,-12.5956 7.0745,-11.69676 z"
     id="path4465-8-4"
     inkscape:connector-curvature="0"
     sodipodi:nodetypes="sss" />
  <path
     style="fill:#582b18;fill-opacity:1;stroke:none"
     d="m 667.46574,300.25234 c 21.2474,7.184 22.3872,25.01054 1.7124,18.62871 -12.9923,-4.0104 -9.0685,-21.1159 -1.7124,-18.62871 z"
     id="path4566"
     inkscape:connector-curvature="0"
     sodipodi:nodetypes="sss" />
  <path
     style="fill:#582b18;fill-opacity:1;stroke:none"
     d="m 702.05484,312.94438 c -4.5547,-2.87088 7.2154,-21.29533 16.0958,-21.23287 10.0143,0.0704 24.7938,11.68414 18.1507,19.17808 -6.4934,7.32509 -20.3005,10.84525 -34.2465,2.05479 z"
     id="path4568"
     inkscape:connector-curvature="0"
     sodipodi:nodetypes="ssss" />
  <path
     style="fill:#582b18;fill-opacity:1;stroke:none"
     d="m 748.28764,306.78 c -10.2535,-2.65322 -2.8531,-20.12985 1.3699,-24.65753 12.8074,-13.73144 19.2615,-1.62504 20.5479,4.45204 1.8089,8.54483 -12.889,22.54179 -21.9178,20.20549 z"
     id="path4570"
     inkscape:connector-curvature="0"
     sodipodi:nodetypes="ssss" />
  <path
     style="fill:#582b18;fill-opacity:1;stroke:none"
     d="m 777.73974,291.36904 c -6.0538,-3.69506 -4.6098,-16.7342 1.3698,-20.54795 3.7177,-2.37106 7.9033,-3.17239 9.2466,1.0274 3.3544,10.4869 -4.5958,23.19541 -10.6164,19.52055 z"
     id="path4572"
     inkscape:connector-curvature="0"
     sodipodi:nodetypes="ssss" />
</svg>
