<?xml version="1.0" encoding="UTF-8" standalone="no"?>
<!-- Created with Inkscape (http://www.inkscape.org/) -->

<svg
   xmlns:dc="http://purl.org/dc/elements/1.1/"
   xmlns:cc="http://creativecommons.org/ns#"
   xmlns:rdf="http://www.w3.org/1999/02/22-rdf-syntax-ns#"
   xmlns:svg="http://www.w3.org/2000/svg"
   xmlns="http://www.w3.org/2000/svg"
   xmlns:sodipodi="http://sodipodi.sourceforge.net/DTD/sodipodi-0.dtd"
   xmlns:inkscape="http://www.inkscape.org/namespaces/inkscape"
   id="svg3036"
   version="1.1"
   inkscape:version="0.48.4 r9939"
   width="1287.3997"
   height="888.33649"
   sodipodi:docname="fsqvcxw.svg">
  <metadata
     id="metadata3042">
    <rdf:RDF>
      <cc:Work
         rdf:about="">
        <dc:format>image/svg+xml</dc:format>
        <dc:type
           rdf:resource="http://purl.org/dc/dcmitype/StillImage" />
        <dc:title></dc:title>
      </cc:Work>
    </rdf:RDF>
  </metadata>
  <defs
     id="defs3040" />
  <sodipodi:namedview
     pagecolor="#ffffff"
     bordercolor="#666666"
     borderopacity="1"
     objecttolerance="10"
     gridtolerance="10"
     guidetolerance="10"
     inkscape:pageopacity="0"
     inkscape:pageshadow="2"
     inkscape:window-width="1301"
     inkscape:window-height="744"
     id="namedview3038"
     showgrid="false"
     inkscape:zoom="0.49916387"
     inkscape:cx="297.03455"
     inkscape:cy="401.21174"
     inkscape:window-x="65"
     inkscape:window-y="24"
     inkscape:window-maximized="1"
     inkscape:current-layer="svg3036"
     fit-margin-top="0"
     fit-margin-left="0"
     fit-margin-right="0"
     fit-margin-bottom="0" />
  <flowRoot
     xml:space="preserve"
     id="flowRoot3834"
     style="font-size:40px;font-style:normal;font-variant:normal;font-weight:normal;font-stretch:normal;line-height:125%;letter-spacing:0px;word-spacing:0px;fill:#000000;fill-opacity:1;stroke:none;font-family:FreeSans;-inkscape-font-specification:FreeSans"
     transform="translate(8.0134048,-26.192757)"><flowRegion
       id="flowRegion3836"><rect
         id="rect3838"
         width="448.75043"
         height="180.30151"
         x="230.38525"
         y="622.04022" /></flowRegion><flowPara
       id="flowPara3840" /></flowRoot>  <path
     style="fill:#e2c14f;fill-opacity:1;stroke:none"
     d="M 417.69849,0.85246941 C 633.39257,35.363569 690.2819,150.02252 767.28308,232.2394 902.19995,376.29491 942.76249,588.40326 893.49414,564.79551 l -485.8124,7.01173 C 225.52027,451.11341 255.78612,352.39508 218.36516,243.25783 178.69847,146.20351 330.83973,-13.044952 417.69849,0.85246941 z"
     id="path3056"
     inkscape:connector-curvature="0"
     sodipodi:nodetypes="sscccs" />
  <path
     style="fill:#363f48;fill-opacity:1;stroke:none"
     d="m 237.75113,195.0559 c -71.71018,30.65785 12.39036,118.73132 44.07371,126.21106 72.49159,48.93401 256.34922,12.82451 142.18024,-78.26535 -5.56024,-6.9982 3.74371,-15.68885 0.95861,-17.35471 z"
     id="path3048"
     inkscape:connector-curvature="0"
     sodipodi:nodetypes="ccccc" />
  <path
     style="fill:#bf6c10;fill-opacity:1;stroke:none"
     d="m 298.49917,51.937896 c 18.86246,1.783984 27.12932,17.695427 14.02344,62.103854 29.24796,-2.09778 60.39165,-9.44327 92.20444,50.62018 20.1219,19.29305 31.86218,35.93395 32.00327,56.55905 85.6197,84.37975 110.3186,51.65504 136.2278,-40.06701 70.18705,9.16697 217.77296,112.5496 121.20268,219.36684 -27.35628,-16.83014 -43.20837,-19.76879 -73.23463,-15.40477 83.61266,8.47384 83.7315,32.97448 43.18438,93.53542 9.20548,14.64432 34.60717,26.12938 49.34598,27.38895 75.3347,6.43804 139.76257,-15.04301 146.98233,-58.44088 15.9536,109.0689 34.78025,74.48487 52.41657,99.41752 C 904.27063,439.06338 858.92412,329.52189 749.25293,209.20087 602.92992,25.734281 395.18409,-60.986472 298.49917,51.937896 z"
     id="path3060"
     inkscape:connector-curvature="0"
     sodipodi:nodetypes="ccccccccscccc" />
  <path
     style="fill:#bf6c10;fill-opacity:1;stroke:none"
     d="M 795.38337,744.1439 C 779.84848,615.49955 1160.8431,399.90998 1264.5866,522.34031 1404.775,687.78008 855.4825,798.46714 795.38337,744.1439 z"
     id="path3846"
     inkscape:connector-curvature="0"
     sodipodi:nodetypes="csc" />
  <rect
     style="fill:#eeb600;fill-opacity:1;stroke:none"
     id="rect3830"
     width="921.54108"
     height="476.79733"
     x="0"
     y="411.53918"
     ry="40.067001"
     rx="32.0536" />
  <path
     style="fill:#4e5460;fill-opacity:1;stroke:none"
     d="m 187.81407,378.48396 -18.03015,4.0067 c -28.95517,-4.48369 -47.39646,16.26593 -63.10553,43.57286 3.01442,14.47081 1.66176,34.40047 14.52429,36.56114 4.68168,-3.61236 11.31796,-38.30915 12.02011,-44.57454 -5.01504,13.19864 -6.93138,51.04578 10.01674,47.57956 12.45182,2.65376 18.07863,-39.93773 21.53601,-54.59128 2.97526,18.86828 12.41056,54.29771 22.03686,42.57119 z"
     id="path3050"
     inkscape:connector-curvature="0"
     sodipodi:nodetypes="ccccccccc" />
  <path
     style="fill:#e2c14f;fill-opacity:1;stroke:none"
     d="m 576.06295,388.35982 c -0.95819,18.07827 6.68365,32.01531 23.02215,32.93345 19.09977,9.69658 43.70617,61.07597 34.26217,60.0864 -8.7859,-0.92062 18.91336,0.15584 30.5438,-2.35858 22.89971,-32.73722 34.21213,-57.21452 20.78173,-73.63445 -12.55108,-15.34487 -46.89051,-23.96691 -108.60985,-17.02682 z"
     id="path3832"
     inkscape:connector-curvature="0"
     sodipodi:nodetypes="ccscsc" />
  <text
     xml:space="preserve"
     style="font-size:431.42477417px;font-style:normal;font-variant:normal;font-weight:normal;font-stretch:normal;line-height:125%;letter-spacing:0px;word-spacing:0px;fill:#ffffff;fill-opacity:1;stroke:none;font-family:FreeSans;-inkscape-font-specification:FreeSans"
     x="150.73364"
     y="802.57581"
     id="text3842"
     sodipodi:linespacing="125%"><tspan
       sodipodi:role="line"
       id="tspan3844"
       x="150.73364"
       y="802.57581"
       style="font-style:normal;font-variant:normal;font-weight:500;font-stretch:normal;font-family:Ubuntu;-inkscape-font-specification:Ubuntu Medium">GO</tspan></text>
  <path
     style="fill:#4e5460;fill-opacity:1;stroke:none"
     d="m 577.47954,389.06811 c 14.52933,8.71887 9.10368,14.36774 7.08291,20.54044 12.4425,-7.35247 18.1306,0.15475 24.0819,7.08291 15.33305,5.13577 18.30902,15.8884 19.12386,27.62336 20.20406,1.01459 32.81004,7.34784 39.66431,17.70728 -14.29218,24.20766 -16.40717,52.84339 -43.91405,72.24571 -4.54406,-13.46831 -5.01744,-31.68576 6.37462,-63.74621 -24.7656,21.07412 -46.67057,43.28978 -79.03523,45.36623 1.86234,-8.42712 -14.77152,-31.84014 42.20408,-76.53105 -25.98484,9.65626 -52.93073,33.72843 -77.20374,17.70728 -7.20365,-21.99702 18.24499,-36.21968 50.28868,-48.87209 -23.60971,7.28919 -47.21941,26.01607 -70.82912,12.74924 17.29318,-21.9802 35.30369,-43.15341 82.16178,-31.8731 z"
     id="path3058"
     inkscape:connector-curvature="0"
     sodipodi:nodetypes="ccccccccccccc" />
  <path
     style="fill:#000000;fill-opacity:1;stroke:none"
     d="m 420.23889,163.12321 c 0,0 15.02117,-10.93436 23.37361,-14.87412 19.31276,-9.10962 60.91304,-19.83215 60.91304,-19.83215 -38.74824,5.17714 -106.20624,-6.87157 -84.28665,34.70627 z"
     id="path3052"
     inkscape:connector-curvature="0"
     sodipodi:nodetypes="cacc" />
  <path
     style="fill:#000000;fill-opacity:1;stroke:none"
     d="m 293.45476,111.41795 -5.66633,-15.582397 c 2.62369,5.123787 16.50587,8.257447 5.66632,28.331637 z"
     id="path3054"
     inkscape:connector-curvature="0"
     sodipodi:nodetypes="cccc" />
  <path
     style="fill:#505c68;fill-opacity:1;stroke:none"
     d="m 235.39363,196.1791 c -3.5505,89.43018 -85.78615,124.73793 -92.12944,165.88428 -10.24767,66.47254 222.02078,122.12526 267.42258,-117.80388 35.71884,-27.87502 24.26436,-56.02697 -1.3931,-80.95216 -7.87859,-42.01902 -80.65843,-79.371117 -118.25302,-29.70117 -67.12963,21.43282 -22.41688,25.69634 -55.64702,62.57293 z"
     id="path3046"
     inkscape:connector-curvature="0"
     sodipodi:nodetypes="cscccc" />
  <path
     style="fill:#bf6c10;fill-opacity:1;stroke:none"
     d="m 619.39024,384.81836 c 59.10444,-6.86138 86.34601,19.60466 62.47372,65.4284 13.02272,-35.1205 -0.54609,-57.51124 -62.47372,-65.4284 z"
     id="path3848"
     inkscape:connector-curvature="0"
     sodipodi:nodetypes="ccc" />
</svg>
