<?xml version="1.0" encoding="UTF-8" standalone="no"?>
<!-- Created with Inkscape (http://www.inkscape.org/) -->

<svg
   xmlns:dc="http://purl.org/dc/elements/1.1/"
   xmlns:cc="http://creativecommons.org/ns#"
   xmlns:rdf="http://www.w3.org/1999/02/22-rdf-syntax-ns#"
   xmlns:svg="http://www.w3.org/2000/svg"
   xmlns="http://www.w3.org/2000/svg"
   xmlns:sodipodi="http://sodipodi.sourceforge.net/DTD/sodipodi-0.dtd"
   xmlns:inkscape="http://www.inkscape.org/namespaces/inkscape"
   width="100"
   height="100"
   id="svg3153"
   version="1.1"
   inkscape:version="0.48.4 r9939"
   sodipodi:docname="icon_directory.svg">
  <defs
     id="defs3155" />
  <sodipodi:namedview
     id="base"
     pagecolor="#ffffff"
     bordercolor="#666666"
     borderopacity="1.0"
     inkscape:pageopacity="0.0"
     inkscape:pageshadow="2"
     inkscape:zoom="1.979899"
     inkscape:cx="-28.601431"
     inkscape:cy="8.5096577"
     inkscape:document-units="px"
     inkscape:current-layer="layer1"
     showgrid="false"
     inkscape:showpageshadow="false"
     showborder="true"
     inkscape:window-width="1301"
     inkscape:window-height="744"
     inkscape:window-x="65"
     inkscape:window-y="24"
     inkscape:window-maximized="1" />
  <metadata
     id="metadata3158">
    <rdf:RDF>
      <cc:Work
         rdf:about="">
        <dc:format>image/svg+xml</dc:format>
        <dc:type
           rdf:resource="http://purl.org/dc/dcmitype/StillImage" />
        <dc:title></dc:title>
      </cc:Work>
    </rdf:RDF>
  </metadata>
  <g
     inkscape:label="Layer 1"
     inkscape:groupmode="layer"
     id="layer1"
     transform="translate(0,-952.36218)">
    <path
       style="color:#000000;fill:#f5a305;fill-opacity:1;fill-rule:evenodd;stroke:#000000;stroke-width:0;stroke-linecap:butt;stroke-linejoin:miter;stroke-miterlimit:4;stroke-opacity:1;stroke-dashoffset:0;marker:none;visibility:visible;display:inline;overflow:visible;enable-background:accumulate"
       d="m 100,1002.3622 c 0,27.6143 -22.38576,50 -50,50 -27.61424,0 -50,-22.3857 -50,-50 0,-27.61422 22.38576,-50.00002 50,-50.00002 27.61424,0 50,22.3858 50,50.00002 z"
       id="path3830-1-5"
       inkscape:connector-curvature="0"
       sodipodi:nodetypes="sssss" />
    <path
       style="color:#000000;fill:#ffffff;fill-opacity:1;fill-rule:evenodd;stroke:none;stroke-width:0.99999988px;marker:none;visibility:visible;display:inline;overflow:visible;enable-background:accumulate"
       d="m 65.55468,1027.9327 c -4.9877,6.3848 -6.64623,-6.8748 -14.1834,-6.8748 -7.53721,0 -10.2765,13.2666 -15.25565,6.8748 -9.38201,-12.0441 7.71844,-26.7292 15.25565,-26.7292 7.53717,0 23.69942,14.5474 14.1834,26.7292 z"
       id="path3897"
       inkscape:connector-curvature="0"
       sodipodi:nodetypes="sssss" />
    <path
       sodipodi:type="arc"
       style="color:#000000;fill:#ffffff;fill-opacity:1;fill-rule:evenodd;stroke:none;stroke-width:0.80296582px;marker:none;visibility:visible;display:inline;overflow:visible;enable-background:accumulate"
       id="path3902"
       sodipodi:cx="2061.4285"
       sodipodi:cy="887.14288"
       sodipodi:rx="28.150568"
       sodipodi:ry="15.357142"
       d="m 2089.579,887.14288 a 28.150568,15.357142 0 1 1 -56.3011,0 28.150568,15.357142 0 1 1 56.3011,0 z"
       transform="matrix(0.22651654,-0.09124818,0.18878278,0.6899507,-593.03001,561.48743)" />
    <path
       sodipodi:type="arc"
       style="color:#000000;fill:#ffffff;fill-opacity:1;fill-rule:evenodd;stroke:none;stroke-width:0.81595087px;marker:none;visibility:visible;display:inline;overflow:visible;enable-background:accumulate"
       id="path3902-2"
       sodipodi:cx="2061.4285"
       sodipodi:cy="887.14288"
       sodipodi:rx="28.150568"
       sodipodi:ry="15.357142"
       d="m 2089.579,887.14288 a 28.150568,15.357142 0 1 1 -56.3011,0 28.150568,15.357142 0 1 1 56.3011,0 z"
       transform="matrix(0.14033434,-0.20296571,0.51871704,0.44715346,-724.82398,1021.505)" />
    <path
       sodipodi:type="arc"
       style="color:#000000;fill:#ffffff;fill-opacity:1;fill-rule:evenodd;stroke:none;stroke-width:0.80296582px;marker:none;visibility:visible;display:inline;overflow:visible;enable-background:accumulate"
       id="path3902-25"
       sodipodi:cx="2061.4285"
       sodipodi:cy="887.14288"
       sodipodi:rx="28.150568"
       sodipodi:ry="15.357142"
       d="m 2089.579,887.14288 a 28.150568,15.357142 0 1 1 -56.3011,0 28.150568,15.357142 0 1 1 56.3011,0 z"
       transform="matrix(-0.22651654,-0.09124818,-0.18878278,0.6899507,696.32572,561.59968)" />
    <path
       sodipodi:type="arc"
       style="color:#000000;fill:#ffffff;fill-opacity:1;fill-rule:evenodd;stroke:none;stroke-width:0.81595087px;marker:none;visibility:visible;display:inline;overflow:visible;enable-background:accumulate"
       id="path3902-2-6"
       sodipodi:cx="2061.4285"
       sodipodi:cy="887.14288"
       sodipodi:rx="28.150568"
       sodipodi:ry="15.357142"
       d="m 2089.579,887.14288 a 28.150568,15.357142 0 1 1 -56.3011,0 28.150568,15.357142 0 1 1 56.3011,0 z"
       transform="matrix(-0.14033434,-0.20296571,-0.51871704,0.44715346,828.11973,1021.6172)" />
  </g>
</svg>
