<?xml version="1.0" encoding="UTF-8" standalone="no"?>
<!-- Created with Inkscape (http://www.inkscape.org/) -->

<svg
   xmlns:dc="http://purl.org/dc/elements/1.1/"
   xmlns:cc="http://creativecommons.org/ns#"
   xmlns:rdf="http://www.w3.org/1999/02/22-rdf-syntax-ns#"
   xmlns:svg="http://www.w3.org/2000/svg"
   xmlns="http://www.w3.org/2000/svg"
   xmlns:sodipodi="http://sodipodi.sourceforge.net/DTD/sodipodi-0.dtd"
   xmlns:inkscape="http://www.inkscape.org/namespaces/inkscape"
   width="100"
   height="100"
   id="svg4902"
   version="1.1"
   inkscape:version="0.48.4 r9939"
   sodipodi:docname="icon.svg">
  <defs
     id="defs4904" />
  <sodipodi:namedview
     id="base"
     pagecolor="#ffffff"
     bordercolor="#666666"
     borderopacity="1.0"
     inkscape:pageopacity="0.0"
     inkscape:pageshadow="2"
     inkscape:zoom="1.979899"
     inkscape:cx="-92.229139"
     inkscape:cy="-1.0342434"
     inkscape:document-units="px"
     inkscape:current-layer="layer1"
     showgrid="false"
     inkscape:showpageshadow="false"
     inkscape:window-width="1301"
     inkscape:window-height="744"
     inkscape:window-x="65"
     inkscape:window-y="24"
     inkscape:window-maximized="1" />
  <metadata
     id="metadata4907">
    <rdf:RDF>
      <cc:Work
         rdf:about="">
        <dc:format>image/svg+xml</dc:format>
        <dc:type
           rdf:resource="http://purl.org/dc/dcmitype/StillImage" />
        <dc:title />
      </cc:Work>
    </rdf:RDF>
  </metadata>
  <g
     inkscape:label="Layer 1"
     inkscape:groupmode="layer"
     id="layer1"
     transform="translate(0,-952.36218)">
    <rect
       style="fill:#9d1634;fill-opacity:1;stroke:none"
       id="rect7663"
       width="100"
       height="100"
       x="0"
       y="952.36218"
       ry="15.553288"
       rx="15.39484" />
    <path
       style="fill:none;stroke:none"
       d="m 65.403745,960.53548 0,29.0146 28.969848,0 7.3e-5,28.96992 -28.969885,0 -3.6e-5,28.9699 -28.969849,0 0,-28.9699 -28.9698847,0 0,-28.96992 28.9698487,10e-5 7.3e-5,-28.9251 c 2.717374,-0.1045 28.969812,-0.09 28.969812,-0.09 z"
       id="path3006"
       inkscape:connector-curvature="0"
       sodipodi:nodetypes="ccccccccccccc" />
    <path
       style="fill:none;stroke:none"
       d="m 65.397521,960.54108 0,29.0147 28.969885,0 7.3e-5,28.96982 -28.969885,0 -7.3e-5,28.9699 -28.969848,0 0,-28.9699 -28.9698517,0 0,-28.96982 28.9698517,0 3.6e-5,-28.925 c 2.717375,-0.1046 28.969812,-0.09 28.969812,-0.09 z"
       id="path3006-53"
       inkscape:connector-curvature="0"
       sodipodi:nodetypes="ccccccccccccc" />
    <path
       style="fill:#fefedb;fill-opacity:1;stroke:none"
       d="m 63.359754,962.30798 0,29.1692 28.871582,0 3.6e-5,24.95492 -28.871545,0 -7.3e-5,29.2896 -24.954803,0 0,-29.2896 -28.8715397,0 0,-24.95492 28.8715397,10e-5 0,-29.0913 c 2.365069,-0.091 24.954803,-0.078 24.954803,-0.078 z"
       id="path3006-5"
       inkscape:connector-curvature="0"
       sodipodi:nodetypes="ccccccccccccc" />
    <path
       sodipodi:type="arc"
       style="color:#000000;fill:none;stroke:none;stroke-width:27.58804512;marker:none;visibility:visible;display:inline;overflow:visible;enable-background:accumulate"
       id="path3771-4"
       sodipodi:cx="377.29196"
       sodipodi:cy="442.73511"
       sodipodi:rx="94.449265"
       sodipodi:ry="90.408653"
       d="m 471.74123,442.73511 c 0,49.93132 -42.28638,90.40865 -94.44927,90.40865 -52.16289,0 -94.44926,-40.47733 -94.44926,-90.40865 0,-49.93132 42.28637,-90.40866 94.44926,-90.40866 52.16289,0 94.44927,40.47734 94.44927,90.40866 z"
       transform="matrix(0.5103274,0,0,0.52995264,-141.58779,769.61256)" />
    <path
       style="fill:#a81227;fill-opacity:1;stroke:#000000;stroke-width:0;stroke-linecap:butt;stroke-linejoin:miter;stroke-miterlimit:4;stroke-opacity:1;stroke-dasharray:none"
       d="m 51.051882,994.38768 c 0.03639,-1.3898 0.03057,-0.6908 0.06107,-1.9321 3.723229,-1.766 2.676976,-10.1514 -0.746066,-10.371 -2.743797,-0.092 -5.012856,7.6262 -0.68583,10.4292 -0.0047,0.8903 -0.0065,1.5754 -0.0131,1.8976 -0.785918,0.01 -1.563502,0 -1.795048,-0.01 0.02985,4.8538 -0.0313,27.07902 -0.02621,32.74392 1.708463,-0.01 4.686791,-0.05 5.076074,-0.057 0.01201,-1.7902 0,-32.26272 0,-32.70062 -0.79731,0.023 -0.950897,0.061 -1.872023,-0.01 z"
       id="path3926"
       inkscape:connector-curvature="0"
       sodipodi:nodetypes="ccccccccccc" />
    <path
       style="fill:#bd41e9;fill-opacity:1;stroke:#000000;stroke-width:0;stroke-linecap:butt;stroke-linejoin:miter;stroke-miterlimit:4;stroke-opacity:1;stroke-dasharray:none"
       d="m 71.325899,981.75308 c -8.524156,15.1107 -13.471973,33.94822 -15.846979,42.52422 -7.145759,-2.6553 -2.019823,-0.7096 -7.185357,-2.6782 3.511954,-6.6014 14.987432,-31.37012 23.032336,-39.84602 z"
       id="path3953"
       inkscape:connector-curvature="0"
       sodipodi:nodetypes="cccc" />
    <path
       style="fill:#731b1b;fill-opacity:1;stroke:#000000;stroke-width:0;stroke-linecap:butt;stroke-linejoin:miter;stroke-miterlimit:4;stroke-opacity:1;stroke-dasharray:none"
       d="m 50.403792,988.69008 c -1.204426,0.1615 -2.605459,0.1586 -4.015591,0.3207 -2.744707,0.3697 -4.251578,1.6083 -4.792265,2.5904 -0.552443,4.0648 15.359938,5.7909 16.488444,8.70132 -0.176153,2.6237 -13.362024,10.9526 -12.789745,15.0055 0.206833,1.1774 0.227542,2.1686 1.998897,4.5742 2.471561,3.3564 2.043881,3.2166 2.659397,5.1455 -0.276021,-0.6811 0.726157,-1.0035 -2.211081,-4.9123 -2.026448,-2.6968 -2.072598,-4.3901 -1.683351,-5.2322 0.301352,-2.3657 12.702142,-10.2004 12.779737,-13.5096 0.04473,-1.90782 -2.8928,-4.02672 -5.081389,-4.69432 -4.590744,-1.4005 -11.218928,-3.0817 -11.139404,-4.0962 0.554517,-0.974 3.137629,-3.1366 10.026403,-2.1612 0.807682,0.098 1.323875,0.5434 1.926507,0.5782 0.733254,0.043 1.955805,-1.0401 2.087483,-1.4451 0.01565,-0.5219 -0.590439,-0.8555 -1.349934,-1.2227 -1.095423,-0.4752 -1.239148,-0.4999 -1.874135,-0.5348 -1.097315,0.047 -2.112086,0.6841 -3.029973,0.8926 z"
       id="path3928"
       inkscape:connector-curvature="0"
       sodipodi:nodetypes="cccccscscssccscccc" />
    <path
       style="fill:#f9e9b5;fill-opacity:1;stroke:#000000;stroke-width:0;stroke-linecap:butt;stroke-linejoin:miter;stroke-miterlimit:4;stroke-opacity:1;stroke-dasharray:none"
       d="m 71.318292,981.75678 4.593183,7.9001 -20.432555,34.62042 c 3.727815,-14.58 8.554255,-30.35242 15.839372,-42.52052 z"
       id="path3955"
       inkscape:connector-curvature="0"
       sodipodi:nodetypes="cccc" />
    <path
       style="fill:#a418e5;fill-opacity:1;stroke:#000000;stroke-width:0;stroke-linecap:butt;stroke-linejoin:miter;stroke-miterlimit:4;stroke-opacity:1;stroke-dasharray:none"
       d="m 35.934773,988.57258 c 7.325334,13.08892 10.010607,24.82502 11.95382,32.83062 1.966287,2.7836 5.177472,8.5775 5.121205,8.5963 -3.710272,-15.1459 -9.425556,-33.85222 -17.075025,-41.42692 z"
       id="path3957"
       inkscape:connector-curvature="0"
       sodipodi:nodetypes="cccc" />
  </g>
</svg>
